<mxfile host="app.diagrams.net" modified="2023-04-12T13:53:49.598Z" agent="Mozilla/5.0 (Windows NT 10.0; Win64; x64) AppleWebKit/537.36 (KHTML, like Gecko) Chrome/112.0.0.0 Safari/537.36" etag="mXgKPXvkntLNKTtpY5dA" version="21.1.5" type="github">
  <diagram name="第 1 页" id="uLm2FXyUYoYFo3uHgV7U">
    <mxGraphModel dx="1877" dy="1718" grid="1" gridSize="10" guides="1" tooltips="1" connect="1" arrows="1" fold="1" page="1" pageScale="1" pageWidth="827" pageHeight="1169" math="0" shadow="0">
      <root>
        <mxCell id="0" />
        <mxCell id="1" parent="0" />
        <mxCell id="qJ08ZY0-j0J5e2I6gDsd-47" style="edgeStyle=orthogonalEdgeStyle;rounded=0;orthogonalLoop=1;jettySize=auto;html=1;entryX=0;entryY=0.5;entryDx=0;entryDy=0;" edge="1" parent="1" source="qJ08ZY0-j0J5e2I6gDsd-43" target="qJ08ZY0-j0J5e2I6gDsd-96">
          <mxGeometry relative="1" as="geometry">
            <mxPoint x="60" y="785" as="targetPoint" />
          </mxGeometry>
        </mxCell>
        <mxCell id="qJ08ZY0-j0J5e2I6gDsd-43" value="上游（pdd，淘宝、天猫）" style="rounded=0;whiteSpace=wrap;html=1;" vertex="1" parent="1">
          <mxGeometry x="-150" y="757" width="120" height="70" as="geometry" />
        </mxCell>
        <mxCell id="qJ08ZY0-j0J5e2I6gDsd-78" style="edgeStyle=orthogonalEdgeStyle;rounded=0;orthogonalLoop=1;jettySize=auto;html=1;entryX=0;entryY=0.5;entryDx=0;entryDy=0;entryPerimeter=0;" edge="1" parent="1" source="qJ08ZY0-j0J5e2I6gDsd-52" target="qJ08ZY0-j0J5e2I6gDsd-77">
          <mxGeometry relative="1" as="geometry" />
        </mxCell>
        <mxCell id="qJ08ZY0-j0J5e2I6gDsd-93" value="订单支付成功之后开始回调" style="edgeStyle=orthogonalEdgeStyle;rounded=0;orthogonalLoop=1;jettySize=auto;html=1;" edge="1" parent="1" target="qJ08ZY0-j0J5e2I6gDsd-96">
          <mxGeometry relative="1" as="geometry">
            <mxPoint x="255" y="753" as="targetPoint" />
            <mxPoint x="525" y="753" as="sourcePoint" />
            <Array as="points">
              <mxPoint x="525" y="683" />
              <mxPoint x="120" y="683" />
            </Array>
            <mxPoint as="offset" />
          </mxGeometry>
        </mxCell>
        <mxCell id="qJ08ZY0-j0J5e2I6gDsd-52" value="推单系统（收到上游派过来的订单然后落库）" style="rounded=0;whiteSpace=wrap;html=1;" vertex="1" parent="1">
          <mxGeometry x="460" y="750" width="120" height="70" as="geometry" />
        </mxCell>
        <mxCell id="qJ08ZY0-j0J5e2I6gDsd-57" style="edgeStyle=orthogonalEdgeStyle;rounded=0;orthogonalLoop=1;jettySize=auto;html=1;" edge="1" parent="1" source="qJ08ZY0-j0J5e2I6gDsd-54" target="qJ08ZY0-j0J5e2I6gDsd-56">
          <mxGeometry relative="1" as="geometry" />
        </mxCell>
        <mxCell id="qJ08ZY0-j0J5e2I6gDsd-101" value="支付凭证" style="edgeLabel;html=1;align=center;verticalAlign=middle;resizable=0;points=[];" vertex="1" connectable="0" parent="qJ08ZY0-j0J5e2I6gDsd-57">
          <mxGeometry x="-0.1132" y="-1" relative="1" as="geometry">
            <mxPoint as="offset" />
          </mxGeometry>
        </mxCell>
        <mxCell id="qJ08ZY0-j0J5e2I6gDsd-68" style="edgeStyle=orthogonalEdgeStyle;rounded=0;orthogonalLoop=1;jettySize=auto;html=1;entryX=0.5;entryY=1;entryDx=0;entryDy=0;entryPerimeter=0;" edge="1" parent="1" source="qJ08ZY0-j0J5e2I6gDsd-54" target="qJ08ZY0-j0J5e2I6gDsd-60">
          <mxGeometry relative="1" as="geometry" />
        </mxCell>
        <mxCell id="qJ08ZY0-j0J5e2I6gDsd-84" style="edgeStyle=orthogonalEdgeStyle;rounded=0;orthogonalLoop=1;jettySize=auto;html=1;entryX=0.442;entryY=1.057;entryDx=0;entryDy=0;entryPerimeter=0;" edge="1" parent="1" source="qJ08ZY0-j0J5e2I6gDsd-54" target="qJ08ZY0-j0J5e2I6gDsd-52">
          <mxGeometry relative="1" as="geometry">
            <Array as="points">
              <mxPoint x="1060" y="960" />
              <mxPoint x="513" y="960" />
            </Array>
          </mxGeometry>
        </mxCell>
        <mxCell id="qJ08ZY0-j0J5e2I6gDsd-85" value="订单支付成功以后开始回调" style="edgeLabel;html=1;align=center;verticalAlign=middle;resizable=0;points=[];" vertex="1" connectable="0" parent="qJ08ZY0-j0J5e2I6gDsd-84">
          <mxGeometry x="-0.0383" y="-2" relative="1" as="geometry">
            <mxPoint as="offset" />
          </mxGeometry>
        </mxCell>
        <mxCell id="qJ08ZY0-j0J5e2I6gDsd-54" value="配单系统" style="rounded=0;whiteSpace=wrap;html=1;" vertex="1" parent="1">
          <mxGeometry x="1000" y="750" width="120" height="70" as="geometry" />
        </mxCell>
        <mxCell id="qJ08ZY0-j0J5e2I6gDsd-75" style="edgeStyle=orthogonalEdgeStyle;rounded=0;orthogonalLoop=1;jettySize=auto;html=1;entryX=0.5;entryY=1;entryDx=0;entryDy=0;" edge="1" parent="1" source="qJ08ZY0-j0J5e2I6gDsd-56" target="qJ08ZY0-j0J5e2I6gDsd-54">
          <mxGeometry relative="1" as="geometry">
            <Array as="points">
              <mxPoint x="1310" y="1010" />
              <mxPoint x="1060" y="1010" />
            </Array>
          </mxGeometry>
        </mxCell>
        <mxCell id="qJ08ZY0-j0J5e2I6gDsd-76" value="订单支付成功以后开始回调" style="edgeLabel;html=1;align=center;verticalAlign=middle;resizable=0;points=[];" vertex="1" connectable="0" parent="qJ08ZY0-j0J5e2I6gDsd-75">
          <mxGeometry x="-0.2112" y="1" relative="1" as="geometry">
            <mxPoint as="offset" />
          </mxGeometry>
        </mxCell>
        <mxCell id="qJ08ZY0-j0J5e2I6gDsd-102" style="edgeStyle=orthogonalEdgeStyle;rounded=0;orthogonalLoop=1;jettySize=auto;html=1;entryX=1;entryY=1;entryDx=0;entryDy=-15;entryPerimeter=0;" edge="1" parent="1" source="qJ08ZY0-j0J5e2I6gDsd-56" target="qJ08ZY0-j0J5e2I6gDsd-60">
          <mxGeometry relative="1" as="geometry">
            <Array as="points">
              <mxPoint x="1320" y="685" />
            </Array>
          </mxGeometry>
        </mxCell>
        <mxCell id="qJ08ZY0-j0J5e2I6gDsd-56" value="下游（三方支付系统）" style="rounded=0;whiteSpace=wrap;html=1;" vertex="1" parent="1">
          <mxGeometry x="1250" y="890" width="120" height="60" as="geometry" />
        </mxCell>
        <mxCell id="qJ08ZY0-j0J5e2I6gDsd-69" style="edgeStyle=orthogonalEdgeStyle;rounded=0;orthogonalLoop=1;jettySize=auto;html=1;" edge="1" parent="1" source="qJ08ZY0-j0J5e2I6gDsd-58" target="qJ08ZY0-j0J5e2I6gDsd-62">
          <mxGeometry relative="1" as="geometry" />
        </mxCell>
        <mxCell id="qJ08ZY0-j0J5e2I6gDsd-74" value="去调用运营支付商接&lt;br&gt;口拿到支付凭证" style="edgeLabel;html=1;align=center;verticalAlign=middle;resizable=0;points=[];" vertex="1" connectable="0" parent="qJ08ZY0-j0J5e2I6gDsd-69">
          <mxGeometry x="0.265" y="-1" relative="1" as="geometry">
            <mxPoint x="-1" y="11" as="offset" />
          </mxGeometry>
        </mxCell>
        <mxCell id="qJ08ZY0-j0J5e2I6gDsd-72" value="返回支付凭证，&lt;br&gt;保存到Redis" style="edgeStyle=orthogonalEdgeStyle;rounded=0;orthogonalLoop=1;jettySize=auto;html=1;entryX=1;entryY=0.5;entryDx=0;entryDy=0;entryPerimeter=0;" edge="1" parent="1" source="qJ08ZY0-j0J5e2I6gDsd-58" target="qJ08ZY0-j0J5e2I6gDsd-60">
          <mxGeometry x="-0.1304" y="20" relative="1" as="geometry">
            <Array as="points">
              <mxPoint x="1170" y="510" />
              <mxPoint x="1170" y="670" />
            </Array>
            <mxPoint as="offset" />
          </mxGeometry>
        </mxCell>
        <mxCell id="qJ08ZY0-j0J5e2I6gDsd-58" value="订单推送服务" style="rounded=1;whiteSpace=wrap;html=1;fillColor=#dae8fc;strokeColor=#6c8ebf;" vertex="1" parent="1">
          <mxGeometry x="1000" y="480" width="120" height="60" as="geometry" />
        </mxCell>
        <mxCell id="qJ08ZY0-j0J5e2I6gDsd-70" value="订单推送服务定时&lt;br&gt;拉取Redis中的订单" style="edgeStyle=orthogonalEdgeStyle;rounded=0;orthogonalLoop=1;jettySize=auto;html=1;" edge="1" parent="1" source="qJ08ZY0-j0J5e2I6gDsd-60" target="qJ08ZY0-j0J5e2I6gDsd-58">
          <mxGeometry relative="1" as="geometry" />
        </mxCell>
        <mxCell id="qJ08ZY0-j0J5e2I6gDsd-60" value="Redis" style="shape=cylinder3;whiteSpace=wrap;html=1;boundedLbl=1;backgroundOutline=1;size=15;fillColor=#f8cecc;strokeColor=#b85450;" vertex="1" parent="1">
          <mxGeometry x="1030" y="640" width="60" height="60" as="geometry" />
        </mxCell>
        <mxCell id="qJ08ZY0-j0J5e2I6gDsd-62" value="运营支付商" style="rounded=0;whiteSpace=wrap;html=1;" vertex="1" parent="1">
          <mxGeometry x="1000" y="330" width="120" height="70" as="geometry" />
        </mxCell>
        <mxCell id="qJ08ZY0-j0J5e2I6gDsd-71" value="&lt;h1&gt;&lt;br&gt;&lt;/h1&gt;&lt;p&gt;配单系统会将订单采用list结构保存到Redis中，订单推送服务会定时的从Redis中拉取订单的数据，然后取运营支付商中获取支付凭证之后将获取到的支付凭证存回到Redis中。&lt;/p&gt;" style="text;html=1;strokeColor=none;fillColor=none;spacing=5;spacingTop=-20;whiteSpace=wrap;overflow=hidden;rounded=0;" vertex="1" parent="1">
          <mxGeometry x="1250" y="450" width="190" height="150" as="geometry" />
        </mxCell>
        <mxCell id="qJ08ZY0-j0J5e2I6gDsd-73" value="" style="group" vertex="1" connectable="0" parent="1">
          <mxGeometry x="-10" y="-260" width="720" height="230" as="geometry" />
        </mxCell>
        <mxCell id="qJ08ZY0-j0J5e2I6gDsd-1" value="上游（PDD、淘宝）" style="rounded=0;whiteSpace=wrap;html=1;" vertex="1" parent="qJ08ZY0-j0J5e2I6gDsd-73">
          <mxGeometry y="150" width="120" height="60" as="geometry" />
        </mxCell>
        <mxCell id="qJ08ZY0-j0J5e2I6gDsd-2" value="推单服务" style="rounded=0;whiteSpace=wrap;html=1;" vertex="1" parent="qJ08ZY0-j0J5e2I6gDsd-73">
          <mxGeometry x="200" y="150" width="120" height="60" as="geometry" />
        </mxCell>
        <mxCell id="qJ08ZY0-j0J5e2I6gDsd-5" style="edgeStyle=orthogonalEdgeStyle;rounded=0;orthogonalLoop=1;jettySize=auto;html=1;entryX=0;entryY=0.5;entryDx=0;entryDy=0;" edge="1" parent="qJ08ZY0-j0J5e2I6gDsd-73" source="qJ08ZY0-j0J5e2I6gDsd-1" target="qJ08ZY0-j0J5e2I6gDsd-2">
          <mxGeometry relative="1" as="geometry" />
        </mxCell>
        <mxCell id="qJ08ZY0-j0J5e2I6gDsd-3" value="最初" style="text;html=1;strokeColor=none;fillColor=none;align=center;verticalAlign=middle;whiteSpace=wrap;rounded=0;fontSize=16;fontStyle=1" vertex="1" parent="qJ08ZY0-j0J5e2I6gDsd-73">
          <mxGeometry width="90" height="30" as="geometry" />
        </mxCell>
        <mxCell id="qJ08ZY0-j0J5e2I6gDsd-6" value="配单服务" style="rounded=0;whiteSpace=wrap;html=1;" vertex="1" parent="qJ08ZY0-j0J5e2I6gDsd-73">
          <mxGeometry x="400" y="150" width="120" height="60" as="geometry" />
        </mxCell>
        <mxCell id="qJ08ZY0-j0J5e2I6gDsd-7" style="edgeStyle=orthogonalEdgeStyle;rounded=0;orthogonalLoop=1;jettySize=auto;html=1;entryX=0;entryY=0.5;entryDx=0;entryDy=0;" edge="1" parent="qJ08ZY0-j0J5e2I6gDsd-73" source="qJ08ZY0-j0J5e2I6gDsd-2" target="qJ08ZY0-j0J5e2I6gDsd-6">
          <mxGeometry relative="1" as="geometry" />
        </mxCell>
        <mxCell id="qJ08ZY0-j0J5e2I6gDsd-12" style="edgeStyle=orthogonalEdgeStyle;rounded=0;orthogonalLoop=1;jettySize=auto;html=1;entryX=0.5;entryY=1;entryDx=0;entryDy=0;" edge="1" parent="qJ08ZY0-j0J5e2I6gDsd-73">
          <mxGeometry relative="1" as="geometry">
            <mxPoint x="665" y="210" as="sourcePoint" />
            <mxPoint x="465" y="210" as="targetPoint" />
            <Array as="points">
              <mxPoint x="665" y="230" />
              <mxPoint x="465" y="230" />
            </Array>
          </mxGeometry>
        </mxCell>
        <mxCell id="qJ08ZY0-j0J5e2I6gDsd-8" value="下游（三方支付模块）" style="rounded=0;whiteSpace=wrap;html=1;" vertex="1" parent="qJ08ZY0-j0J5e2I6gDsd-73">
          <mxGeometry x="600" y="150" width="120" height="60" as="geometry" />
        </mxCell>
        <mxCell id="qJ08ZY0-j0J5e2I6gDsd-9" style="edgeStyle=orthogonalEdgeStyle;rounded=0;orthogonalLoop=1;jettySize=auto;html=1;entryX=0;entryY=0.5;entryDx=0;entryDy=0;" edge="1" parent="qJ08ZY0-j0J5e2I6gDsd-73" source="qJ08ZY0-j0J5e2I6gDsd-6" target="qJ08ZY0-j0J5e2I6gDsd-8">
          <mxGeometry relative="1" as="geometry" />
        </mxCell>
        <mxCell id="qJ08ZY0-j0J5e2I6gDsd-10" value="运营商" style="rounded=0;whiteSpace=wrap;html=1;" vertex="1" parent="qJ08ZY0-j0J5e2I6gDsd-73">
          <mxGeometry x="400" y="20" width="120" height="60" as="geometry" />
        </mxCell>
        <mxCell id="qJ08ZY0-j0J5e2I6gDsd-11" style="edgeStyle=orthogonalEdgeStyle;rounded=0;orthogonalLoop=1;jettySize=auto;html=1;entryX=0.5;entryY=1;entryDx=0;entryDy=0;" edge="1" parent="qJ08ZY0-j0J5e2I6gDsd-73" source="qJ08ZY0-j0J5e2I6gDsd-6" target="qJ08ZY0-j0J5e2I6gDsd-10">
          <mxGeometry relative="1" as="geometry" />
        </mxCell>
        <mxCell id="qJ08ZY0-j0J5e2I6gDsd-13" style="edgeStyle=orthogonalEdgeStyle;rounded=0;orthogonalLoop=1;jettySize=auto;html=1;entryX=0.5;entryY=1;entryDx=0;entryDy=0;" edge="1" parent="qJ08ZY0-j0J5e2I6gDsd-73">
          <mxGeometry relative="1" as="geometry">
            <mxPoint x="445" y="210" as="sourcePoint" />
            <mxPoint x="245" y="210" as="targetPoint" />
            <Array as="points">
              <mxPoint x="445" y="230" />
              <mxPoint x="245" y="230" />
            </Array>
          </mxGeometry>
        </mxCell>
        <mxCell id="qJ08ZY0-j0J5e2I6gDsd-79" style="edgeStyle=orthogonalEdgeStyle;rounded=0;orthogonalLoop=1;jettySize=auto;html=1;" edge="1" parent="1" source="qJ08ZY0-j0J5e2I6gDsd-77" target="qJ08ZY0-j0J5e2I6gDsd-54">
          <mxGeometry relative="1" as="geometry">
            <Array as="points">
              <mxPoint x="730" y="650" />
              <mxPoint x="730" y="785" />
            </Array>
          </mxGeometry>
        </mxCell>
        <mxCell id="qJ08ZY0-j0J5e2I6gDsd-77" value="Redis" style="shape=cylinder3;whiteSpace=wrap;html=1;boundedLbl=1;backgroundOutline=1;size=15;fillColor=#f8cecc;strokeColor=#b85450;" vertex="1" parent="1">
          <mxGeometry x="640" y="615" width="60" height="60" as="geometry" />
        </mxCell>
        <mxCell id="qJ08ZY0-j0J5e2I6gDsd-81" value="&lt;h1&gt;Redis&lt;/h1&gt;&lt;div&gt;订单采用Redis中的Set结构进行保存，为了防止出现重复的订单。&lt;/div&gt;" style="text;html=1;strokeColor=none;fillColor=none;spacing=5;spacingTop=-20;whiteSpace=wrap;overflow=hidden;rounded=0;" vertex="1" parent="1">
          <mxGeometry x="580" y="490" width="190" height="120" as="geometry" />
        </mxCell>
        <mxCell id="qJ08ZY0-j0J5e2I6gDsd-94" value="&lt;h1&gt;死锁问题&lt;/h1&gt;&lt;p&gt;1、推单系统处理配单系统成功回调的订单状态&lt;/p&gt;&lt;p&gt;2、通知上游回调成功以后，推单系统从Redis中拉取订单然后修改状态&lt;/p&gt;&lt;p&gt;3、因为是异步回调，所以会产生死锁问题。&lt;/p&gt;&lt;p&gt;&lt;b&gt;&lt;font style=&quot;font-size: 26px;&quot;&gt;如何解决&lt;/font&gt;&lt;/b&gt;&lt;/p&gt;&lt;p&gt;&lt;font style=&quot;font-size: 11px;&quot;&gt;1、将所有订单可以采取一个排序的方式来处理，但是这里没有采用这种方式，因为这种方式如果以后的业务进行扩展，扩展的业务又需要进行排序，对代码的侵入性很强。&lt;/font&gt;&lt;/p&gt;&lt;p&gt;&lt;font style=&quot;font-size: 11px;&quot;&gt;2、在这里采用了分表的方式，单独存放某一部分的数据，这样就不会产生死锁，并且对代码的也没有很强的侵入性。&lt;/font&gt;&lt;/p&gt;" style="text;html=1;strokeColor=none;fillColor=none;spacing=5;spacingTop=-20;whiteSpace=wrap;overflow=hidden;rounded=0;" vertex="1" parent="1">
          <mxGeometry x="160" y="840" width="270" height="310" as="geometry" />
        </mxCell>
        <mxCell id="qJ08ZY0-j0J5e2I6gDsd-98" style="edgeStyle=orthogonalEdgeStyle;rounded=0;orthogonalLoop=1;jettySize=auto;html=1;entryX=0;entryY=0.5;entryDx=0;entryDy=0;" edge="1" parent="1" source="qJ08ZY0-j0J5e2I6gDsd-95" target="qJ08ZY0-j0J5e2I6gDsd-52">
          <mxGeometry relative="1" as="geometry" />
        </mxCell>
        <mxCell id="qJ08ZY0-j0J5e2I6gDsd-95" value="Redis" style="shape=cylinder3;whiteSpace=wrap;html=1;boundedLbl=1;backgroundOutline=1;size=15;fillColor=#f8cecc;strokeColor=#b85450;" vertex="1" parent="1">
          <mxGeometry x="290" y="755" width="56" height="60" as="geometry" />
        </mxCell>
        <mxCell id="qJ08ZY0-j0J5e2I6gDsd-97" style="edgeStyle=orthogonalEdgeStyle;rounded=0;orthogonalLoop=1;jettySize=auto;html=1;entryX=0;entryY=0;entryDx=0;entryDy=37.5;entryPerimeter=0;" edge="1" parent="1" source="qJ08ZY0-j0J5e2I6gDsd-96" target="qJ08ZY0-j0J5e2I6gDsd-95">
          <mxGeometry relative="1" as="geometry" />
        </mxCell>
        <mxCell id="qJ08ZY0-j0J5e2I6gDsd-96" value="订单推送服务" style="rounded=1;whiteSpace=wrap;html=1;fillColor=#dae8fc;strokeColor=#6c8ebf;" vertex="1" parent="1">
          <mxGeometry x="70" y="762" width="120" height="60" as="geometry" />
        </mxCell>
        <mxCell id="qJ08ZY0-j0J5e2I6gDsd-99" value="&lt;h1&gt;上游&lt;/h1&gt;&lt;div&gt;上游给订单到订单推送服务，然后保存到Redis中&lt;/div&gt;" style="text;html=1;strokeColor=none;fillColor=none;spacing=5;spacingTop=-20;whiteSpace=wrap;overflow=hidden;rounded=0;" vertex="1" parent="1">
          <mxGeometry x="-190" y="585" width="190" height="120" as="geometry" />
        </mxCell>
        <mxCell id="qJ08ZY0-j0J5e2I6gDsd-100" value="&lt;h1&gt;推单系统&lt;/h1&gt;&lt;p&gt;推单系统通过一个异步线程从Redis中拉取结果。&lt;/p&gt;" style="text;html=1;strokeColor=none;fillColor=none;spacing=5;spacingTop=-20;whiteSpace=wrap;overflow=hidden;rounded=0;" vertex="1" parent="1">
          <mxGeometry x="280" y="540" width="190" height="120" as="geometry" />
        </mxCell>
      </root>
    </mxGraphModel>
  </diagram>
</mxfile>
